<svg height="64" 
viewBox="0 0 128 128" 
width="64" 
xmlns="http://www.w3.org/2000/svg" 
xmlns:xlink="http://www.w3.org/1999/xlink">
<linearGradient id="a" 
gradientUnits="userSpaceOnUse" 
x1="0" x2="128" y1="128" y2="0">
<stop offset="0" stop-color="#000"/><stop 
offset="1" stop-color="#5d5d5d"/>
</linearGradient>
<path d="m47.017336 14.510457c-.157177.0037-.317968.0123-.465825.04658-1.582229.251061-2.384812 1.872021-3.540271 3.400523-1.306472 17.854669-3.151814 34.202858-4.460276 52.079252 5.475596-.41 13.000815-.325966 20.729219-.430907 8.40785-.114071 16.601409-.689458 20.612763-2.142795 8.267081-2.995141 14.645241-10.578998 19.972254-21.847197-16.374902-9.969515-34.001331-21.81884-49.121262-29.905974-1.314045-.547848-2.626356-1.222847-3.726602-1.199482zm-7.127124 7.301791c-9.792718 18.515618-18.454461 33.667531-28.333815 52.510159-.191793 5.062662.807059 7.976417 2.084567 9.82891 1.28049 1.856817 2.440909 2.337026 4.15749 2.224297 2.475797-.820821 5.587133-3.02574 8.804095-5.81115 1.21978-1.086715 9.03178-7.864433 9.700809-9.363086 1.22585-16.753271 2.352141-32.538446 3.586854-49.38913zm27.961154.885068c11.919542 7.395589 23.314854 14.833214 33.690804 20.973796 3.1012 1.835314 8.98157 4.011872 13.42741 5.333698-4.23146-4.28507-9.06097-7.968107-14.44058-10.620814zm-7.59295 6.905876c1.203487-.0313 2.39673.306923 3.575208 1.001524 2.36107 1.37247 4.5534 4.130341 6.57978 8.280061 1.892342 3.875181 2.605383 7.461625 2.142796 10.760561-.458491 3.282018-2.031821 5.751562-4.716479 7.40662-.720979.444472-1.485483.814821-2.305835 1.106316l-2.666849.675446-1.478995-3.027863c.91396-.04927 1.79011-.194939 2.631912-.442534.841795-.247595 1.617636-.597821 2.329126-1.03648 1.897284-1.169593 2.983032-2.794354 3.260776-4.879499.28185-2.101915-.233971-4.69522-1.560514-7.790945-.0892 1.283405-.438766 2.433285-1.036461 3.458771-.597706 1.025486-1.409404 1.848916-2.433937 2.480537-2.124971 1.310012-4.170815 1.612612-6.137246.896695-1.962301-.732724-3.573147-2.392776-4.832936-4.972702-1.232972-2.524884-1.581461-4.945498-1.036461-7.266872.545019-2.3213 1.897101-4.140031 4.041033-5.461782 1.228497-.75732 2.441595-1.156476 3.645082-1.187854zm-.267849 3.132693c-.694836.02582-1.390656.252105-2.096213.687073-1.290154.795406-2.062473 1.947336-2.317481 3.447107-.250871 1.483001.05693 3.10042.920005 4.867872.868451 1.778446 1.931278 2.946438 3.179257 3.505316l3.819766-.360996c1.290153-.795368 2.054952-1.929149 2.305834-3.412188.260363-1.488702-.03992-3.124308-.908359-4.902791-.863088-1.767415-1.921789-2.928885-3.179256-3.482061-.470003-.213646-.945588-.32768-1.420767-.349332-.099-.0045-.203525-.0037-.302786 0zm-25.445699 9.32813c.247893-.01379.450173.05825.605573.209621.500523.473055.467163 1.713156-.116457 3.726602-.406591 1.402692-.984053 2.777137-1.711907 4.122552-.724604 1.334198-1.549633 2.537666-2.480519 3.598481.808963-.410411 1.314909-.275769 1.502286.407615.193631.67813.0529 1.829911-.419243 3.458733-.724633 2.499954-1.769721 4.832508-3.121028 6.999042-1.351329 2.166571-2.899821 3.980457-4.658252 5.450154-.590334.493402-1.169485.901167-1.735198 1.211146-.562717.316053-1.120951.537599-1.665325.675446l.966587-3.307358c.366869.1134.816498.05575 1.362539-.186331.54604-.242117 1.167119-.650627 1.851655-1.222772 1.19322-.997276 2.218442-2.1839 3.086091-3.551935.873918-1.373253 1.545809-2.866017 2.014694-4.483586.432796-1.493063.481156-2.411074.139748-2.759995-.331866-.365468-1.01342-.120705-2.049631.74532l-1.642034 1.374184.815194-2.818242 1.711908-1.432431c.935727-.782065 1.755993-1.712821 2.445582-2.794951.692849-1.09331 1.21656-2.273338 1.583805-3.540271.37705-1.300808.408115-2.081121.09317-2.340753-.305417-.276104-.932026-.01755-1.886592.780276-.521262.435677-1.114514.998058-1.770135 1.700224-.65564.70239-1.395437 1.568788-2.235961 2.596994l.885068-3.051154c.827126-.9656 1.578767-1.797936 2.259252-2.503792.686745-.711185 1.304359-1.302969 1.8633-1.770136.993039-.829988 1.760473-1.262237 2.305835-1.292683zm67.928952 4.867873c-5.266063 11.130463-11.974456 19.603077-20.56618 23.128219l1.30431 42.401713c2.245807-1.25389 2.670095-2.0048 3.656728-4.37875l29.300402-53.767854c.4087-1.047212.44632-1.72523-.19798-2.166086-4.83161-1.351937-8.98248-3.003119-13.49728-5.217242zm-22.115049 7.418284 1.024816 2.084549-16.990973 8.349934-1.036461-2.084586zm24.921649 7.825862-1.16457 3.051118c-1.29402 1.729292-3.04671 4.056853-5.252174 6.97575-2.216538 2.933506-3.629386 4.80698-4.227364 5.636485-1.131236 1.561855-1.993262 2.844477-2.585329 3.843057-.603128 1.013114-1.072609 1.955944-1.409121 2.829869-.548515 1.424568-.72286 2.480687-.524054 3.155984.192356.677869.726799.832523 1.595451.477452.615859-.251769 1.338476-.709917 2.177733-1.385811.832799-.673285 1.801379-1.570129 2.888116-2.690121l-1.420767 3.65669c-1.016728.909812-1.922673 1.655803-2.725077 2.23596-.802378.580195-1.490789.989599-2.061276 1.22281-1.503941.614703-2.435043.405752-2.794951-.617237-.359874-1.023026-.09068-2.696867.803548-5.019247.424099-1.10136.939406-2.186062 1.548869-3.272441.598406-1.071733 1.455875-2.400937 2.562038-3.982767.295758-.413467 1.192405-1.626065 2.701786-3.645101l6.358512-8.454726-6.859274 2.794951 1.176209-3.051155zm-25.69026 8.722558c-4.739812 1.421698-12.358677 1.720758-20.286685 1.828345-6.728222.06376-15.939807-.465788-21.369729.512408-3.170682 3.05503-6.584096 6.32147-9.922076 9.211711-2.972113 2.489369-6.015919 5.07496-9.770682 6.265348-.461816.03727-.536836-.01491-1.001524-.06987 1.3919 1.252995 2.855511 2.012104 4.436984 2.911407l53.453436 21.404659c.280747.0546 3.241711 1.15163 5.659776.0116zm-25.678611 11.820332c.238822-.008.475473-.0072.710383 0 .268468.0082.528447.03056.791903.05821 2.107631.22177 3.783864 1.02284 5.030911 2.410664.891731.992394 1.258008 2.001781 1.083044 3.027863-.164086 1.021425-.844403 1.953075-2.02634 2.794951 1.826877-.408472 3.528939-.406572 5.100786-.01166 1.582713.390138 2.870098 1.138887 3.866348 2.247625 1.511763 1.682337 1.944589 3.274788 1.304311 4.786335-.629427 1.507-2.282737 2.834153-4.972684 3.971173-2.689965 1.13688-5.161693 1.55653-7.418265 1.26936-2.245691-.29172-4.124703-1.27558-5.636484-2.95799-.996233-1.108701-1.391167-2.232234-1.187855-3.377232.203324-1.144999.975979-2.185391 2.329126-3.121029v-.01163c-1.638702.350301-3.161682.354027-4.576732 0-1.404146-.358611-2.55536-1.033908-3.447106-2.026376-1.247036-1.387712-1.543618-2.778182-.885068-4.169098.669458-1.395501 2.217272-2.599938 4.63496-3.621809 1.859388-.785903 3.626997-1.213568 5.298762-1.269355zm-.582282 2.42229c-.96737.01789-1.989327.261571-3.051155.710365-1.426654.603039-2.301381 1.314521-2.643557 2.154423-.331277.835467-.09775 1.709317.710383 2.608621.80814.89934 1.825848 1.434629 3.0628 1.607134 1.247845.167958 2.591088-.04923 4.017742-.652156 1.41577-.598454 2.289736-1.314484 2.631912-2.154459.353059-.84456.13269-1.720833-.675446-2.620286-.80814-.899266-1.850653-1.432095-3.109383-1.595432-.311961-.042-.620841-.06417-.943296-.05821zm7.185353 7.523039c-1.10016 0-2.239475.256428-3.423815.756985-1.568236.66285-2.543931 1.478268-2.911407 2.457209-.356584.974543-.06708 1.981247.873422 3.027863.940509 1.046765 2.134102 1.69039 3.563563 1.90988 1.440346.21503 2.938615-.0127 4.506858-.67541 1.568221-.662921 2.543919-1.489891 2.911407-2.468869.360497-.986767.07175-2.000589-.861776-3.039528-.940516-1.046653-2.134866-1.671641-3.575208-1.886592-.357367-.05486-.716324-.08202-1.083044-.08154z" fill="url(#a)"/></svg>